<mxfile host="app.diagrams.net" agent="Mozilla/5.0 (X11; Linux x86_64) AppleWebKit/537.36 (KHTML, like Gecko) Chrome/130.0.0.0 Safari/537.36" version="26.2.9">
  <diagram id="jrMk6QQQgedWax6qJVoh" name="Page-1">
    <mxGraphModel dx="1948" dy="1767" grid="1" gridSize="10" guides="1" tooltips="1" connect="1" arrows="1" fold="1" page="1" pageScale="1" pageWidth="850" pageHeight="1100" math="0" shadow="0">
      <root>
        <mxCell id="0" />
        <mxCell id="1" parent="0" />
        <mxCell id="VTxr0MBzQ0uazpq9PHjl-1" value="&lt;h1 style=&quot;margin-top: 0px;&quot;&gt;Core idea&lt;/h1&gt;&lt;p&gt;GCC and CLANG supports two features which allow easy mocking. Weak symbols and wrappers. Goal of this library is to build easy to use mocking library, which lavarages these features.&lt;/p&gt;" style="text;html=1;whiteSpace=wrap;overflow=hidden;rounded=0;" vertex="1" parent="1">
          <mxGeometry x="150" y="-30" width="230" height="160" as="geometry" />
        </mxCell>
        <mxCell id="VTxr0MBzQ0uazpq9PHjl-8" value="" style="edgeStyle=orthogonalEdgeStyle;rounded=0;orthogonalLoop=1;jettySize=auto;html=1;" edge="1" parent="1" source="VTxr0MBzQ0uazpq9PHjl-4">
          <mxGeometry relative="1" as="geometry">
            <mxPoint x="520" y="180" as="targetPoint" />
          </mxGeometry>
        </mxCell>
        <mxCell id="VTxr0MBzQ0uazpq9PHjl-4" value="User wants to use mocking in C" style="ellipse;whiteSpace=wrap;html=1;aspect=fixed;" vertex="1" parent="1">
          <mxGeometry x="475" y="30" width="90" height="90" as="geometry" />
        </mxCell>
        <mxCell id="VTxr0MBzQ0uazpq9PHjl-34" value="" style="edgeStyle=orthogonalEdgeStyle;rounded=0;orthogonalLoop=1;jettySize=auto;html=1;" edge="1" parent="1" target="VTxr0MBzQ0uazpq9PHjl-33">
          <mxGeometry relative="1" as="geometry">
            <mxPoint x="520" y="290" as="sourcePoint" />
          </mxGeometry>
        </mxCell>
        <mxCell id="VTxr0MBzQ0uazpq9PHjl-9" value="" style="endArrow=classic;html=1;rounded=0;exitX=1;exitY=0.5;exitDx=0;exitDy=0;entryX=0.5;entryY=0;entryDx=0;entryDy=0;" edge="1" parent="1" source="VTxr0MBzQ0uazpq9PHjl-47" target="VTxr0MBzQ0uazpq9PHjl-10">
          <mxGeometry width="50" height="50" relative="1" as="geometry">
            <mxPoint x="570" y="235" as="sourcePoint" />
            <mxPoint x="620" y="180" as="targetPoint" />
            <Array as="points">
              <mxPoint x="755" y="240" />
            </Array>
          </mxGeometry>
        </mxCell>
        <mxCell id="VTxr0MBzQ0uazpq9PHjl-16" value="" style="edgeStyle=orthogonalEdgeStyle;rounded=0;orthogonalLoop=1;jettySize=auto;html=1;" edge="1" parent="1" source="VTxr0MBzQ0uazpq9PHjl-10" target="VTxr0MBzQ0uazpq9PHjl-13">
          <mxGeometry relative="1" as="geometry">
            <mxPoint x="945" y="395" as="targetPoint" />
          </mxGeometry>
        </mxCell>
        <mxCell id="VTxr0MBzQ0uazpq9PHjl-22" value="" style="edgeStyle=orthogonalEdgeStyle;rounded=0;orthogonalLoop=1;jettySize=auto;html=1;" edge="1" parent="1" source="VTxr0MBzQ0uazpq9PHjl-10" target="VTxr0MBzQ0uazpq9PHjl-20">
          <mxGeometry relative="1" as="geometry" />
        </mxCell>
        <mxCell id="VTxr0MBzQ0uazpq9PHjl-10" value="Is your project&lt;div&gt;&amp;nbsp;using Cmake?&lt;/div&gt;" style="rhombus;whiteSpace=wrap;html=1;" vertex="1" parent="1">
          <mxGeometry x="700" y="370" width="110" height="90" as="geometry" />
        </mxCell>
        <mxCell id="VTxr0MBzQ0uazpq9PHjl-11" value="By `your project` I&amp;nbsp;&lt;div&gt;mean&amp;nbsp;&lt;span style=&quot;background-color: transparent; color: light-dark(rgb(0, 0, 0), rgb(255, 255, 255));&quot;&gt;project that you&#39;re&amp;nbsp;&lt;/span&gt;&lt;div&gt;working on, not external&amp;nbsp;&lt;/div&gt;&lt;div&gt;libraries.&lt;/div&gt;&lt;/div&gt;" style="ellipse;shape=cloud;whiteSpace=wrap;html=1;" vertex="1" parent="1">
          <mxGeometry x="610" y="-140" width="190" height="120" as="geometry" />
        </mxCell>
        <mxCell id="VTxr0MBzQ0uazpq9PHjl-52" value="" style="edgeStyle=orthogonalEdgeStyle;rounded=0;orthogonalLoop=1;jettySize=auto;html=1;endArrow=none;startFill=0;" edge="1" parent="1" source="VTxr0MBzQ0uazpq9PHjl-13">
          <mxGeometry relative="1" as="geometry">
            <mxPoint x="1120" y="600" as="targetPoint" />
          </mxGeometry>
        </mxCell>
        <mxCell id="VTxr0MBzQ0uazpq9PHjl-13" value="Use Cmake&amp;nbsp;&lt;br&gt;add_mocked_test&lt;div&gt;function&lt;/div&gt;" style="rounded=0;whiteSpace=wrap;html=1;" vertex="1" parent="1">
          <mxGeometry x="910" y="385" width="120" height="60" as="geometry" />
        </mxCell>
        <mxCell id="VTxr0MBzQ0uazpq9PHjl-14" value="wrap method" style="swimlane;whiteSpace=wrap;html=1;" vertex="1" parent="1">
          <mxGeometry x="860" y="310" width="210" height="360" as="geometry" />
        </mxCell>
        <mxCell id="VTxr0MBzQ0uazpq9PHjl-18" value="Yes" style="text;html=1;align=center;verticalAlign=middle;whiteSpace=wrap;rounded=0;" vertex="1" parent="1">
          <mxGeometry x="800" y="360" width="60" height="30" as="geometry" />
        </mxCell>
        <mxCell id="VTxr0MBzQ0uazpq9PHjl-19" value="" style="edgeStyle=orthogonalEdgeStyle;rounded=0;orthogonalLoop=1;jettySize=auto;html=1;" edge="1" parent="1" source="VTxr0MBzQ0uazpq9PHjl-20" target="VTxr0MBzQ0uazpq9PHjl-21">
          <mxGeometry relative="1" as="geometry">
            <mxPoint x="945" y="570" as="targetPoint" />
          </mxGeometry>
        </mxCell>
        <mxCell id="VTxr0MBzQ0uazpq9PHjl-20" value="Is your project&lt;div&gt;&amp;nbsp;using Meson?&lt;/div&gt;" style="rhombus;whiteSpace=wrap;html=1;" vertex="1" parent="1">
          <mxGeometry x="700" y="525" width="110" height="90" as="geometry" />
        </mxCell>
        <mxCell id="VTxr0MBzQ0uazpq9PHjl-50" value="" style="edgeStyle=orthogonalEdgeStyle;rounded=0;orthogonalLoop=1;jettySize=auto;html=1;entryX=1;entryY=0.5;entryDx=0;entryDy=0;endArrow=none;startFill=0;" edge="1" parent="1" source="VTxr0MBzQ0uazpq9PHjl-21" target="VTxr0MBzQ0uazpq9PHjl-29">
          <mxGeometry relative="1" as="geometry">
            <mxPoint x="1170" y="570" as="targetPoint" />
            <Array as="points">
              <mxPoint x="1120" y="570" />
              <mxPoint x="1120" y="780" />
            </Array>
          </mxGeometry>
        </mxCell>
        <mxCell id="VTxr0MBzQ0uazpq9PHjl-21" value="Use Meson&amp;nbsp;&lt;br&gt;add_mocked_test&lt;div&gt;function&lt;/div&gt;" style="rounded=0;whiteSpace=wrap;html=1;" vertex="1" parent="1">
          <mxGeometry x="910" y="540" width="120" height="60" as="geometry" />
        </mxCell>
        <mxCell id="VTxr0MBzQ0uazpq9PHjl-23" value="No" style="text;html=1;align=center;verticalAlign=middle;whiteSpace=wrap;rounded=0;" vertex="1" parent="1">
          <mxGeometry x="750" y="460" width="60" height="30" as="geometry" />
        </mxCell>
        <mxCell id="VTxr0MBzQ0uazpq9PHjl-24" value="Yes" style="text;html=1;align=center;verticalAlign=middle;whiteSpace=wrap;rounded=0;" vertex="1" parent="1">
          <mxGeometry x="800" y="540" width="60" height="30" as="geometry" />
        </mxCell>
        <mxCell id="VTxr0MBzQ0uazpq9PHjl-25" value="" style="edgeStyle=orthogonalEdgeStyle;rounded=0;orthogonalLoop=1;jettySize=auto;html=1;" edge="1" parent="1">
          <mxGeometry relative="1" as="geometry">
            <mxPoint x="754.58" y="615" as="sourcePoint" />
            <mxPoint x="754.58" y="680" as="targetPoint" />
          </mxGeometry>
        </mxCell>
        <mxCell id="VTxr0MBzQ0uazpq9PHjl-27" value="No" style="text;html=1;align=center;verticalAlign=middle;whiteSpace=wrap;rounded=0;" vertex="1" parent="1">
          <mxGeometry x="750" y="615" width="60" height="30" as="geometry" />
        </mxCell>
        <mxCell id="VTxr0MBzQ0uazpq9PHjl-31" value="" style="edgeStyle=orthogonalEdgeStyle;rounded=0;orthogonalLoop=1;jettySize=auto;html=1;entryX=1;entryY=0.5;entryDx=0;entryDy=0;" edge="1" parent="1" source="VTxr0MBzQ0uazpq9PHjl-28" target="VTxr0MBzQ0uazpq9PHjl-29">
          <mxGeometry relative="1" as="geometry">
            <mxPoint x="555" y="710" as="targetPoint" />
            <Array as="points">
              <mxPoint x="755" y="780" />
            </Array>
          </mxGeometry>
        </mxCell>
        <mxCell id="VTxr0MBzQ0uazpq9PHjl-28" value="Use different mocking framework" style="rounded=0;whiteSpace=wrap;html=1;" vertex="1" parent="1">
          <mxGeometry x="695" y="680" width="120" height="60" as="geometry" />
        </mxCell>
        <mxCell id="VTxr0MBzQ0uazpq9PHjl-29" value="" style="ellipse;html=1;shape=endState;fillColor=#000000;strokeColor=#ff0000;" vertex="1" parent="1">
          <mxGeometry x="482.5" y="750" width="75" height="60" as="geometry" />
        </mxCell>
        <mxCell id="VTxr0MBzQ0uazpq9PHjl-32" value="Yes" style="text;html=1;align=center;verticalAlign=middle;whiteSpace=wrap;rounded=0;" vertex="1" parent="1">
          <mxGeometry x="570" y="210" width="60" height="30" as="geometry" />
        </mxCell>
        <mxCell id="VTxr0MBzQ0uazpq9PHjl-36" value="" style="edgeStyle=orthogonalEdgeStyle;rounded=0;orthogonalLoop=1;jettySize=auto;html=1;" edge="1" parent="1" source="VTxr0MBzQ0uazpq9PHjl-33" target="VTxr0MBzQ0uazpq9PHjl-10">
          <mxGeometry relative="1" as="geometry" />
        </mxCell>
        <mxCell id="VTxr0MBzQ0uazpq9PHjl-41" value="" style="edgeStyle=orthogonalEdgeStyle;rounded=0;orthogonalLoop=1;jettySize=auto;html=1;entryX=0.5;entryY=0;entryDx=0;entryDy=0;" edge="1" parent="1" source="VTxr0MBzQ0uazpq9PHjl-33" target="VTxr0MBzQ0uazpq9PHjl-43">
          <mxGeometry relative="1" as="geometry">
            <mxPoint x="325" y="460" as="targetPoint" />
          </mxGeometry>
        </mxCell>
        <mxCell id="VTxr0MBzQ0uazpq9PHjl-33" value="Do you using&amp;nbsp;&lt;div&gt;building system&lt;span style=&quot;background-color: transparent; color: light-dark(rgb(0, 0, 0), rgb(255, 255, 255));&quot;&gt;?&lt;/span&gt;&lt;/div&gt;" style="rhombus;whiteSpace=wrap;html=1;" vertex="1" parent="1">
          <mxGeometry x="457.5" y="355" width="125" height="120" as="geometry" />
        </mxCell>
        <mxCell id="VTxr0MBzQ0uazpq9PHjl-35" value="No" style="text;html=1;align=center;verticalAlign=middle;whiteSpace=wrap;rounded=0;" vertex="1" parent="1">
          <mxGeometry x="520" y="280" width="60" height="30" as="geometry" />
        </mxCell>
        <mxCell id="VTxr0MBzQ0uazpq9PHjl-37" value="Yes" style="text;html=1;align=center;verticalAlign=middle;whiteSpace=wrap;rounded=0;" vertex="1" parent="1">
          <mxGeometry x="557.5" y="385" width="60" height="30" as="geometry" />
        </mxCell>
        <mxCell id="VTxr0MBzQ0uazpq9PHjl-42" value="No" style="text;html=1;align=center;verticalAlign=middle;whiteSpace=wrap;rounded=0;" vertex="1" parent="1">
          <mxGeometry x="410" y="385" width="60" height="30" as="geometry" />
        </mxCell>
        <mxCell id="VTxr0MBzQ0uazpq9PHjl-45" value="" style="edgeStyle=orthogonalEdgeStyle;rounded=0;orthogonalLoop=1;jettySize=auto;html=1;entryX=0;entryY=0.5;entryDx=0;entryDy=0;" edge="1" parent="1" source="VTxr0MBzQ0uazpq9PHjl-43" target="VTxr0MBzQ0uazpq9PHjl-29">
          <mxGeometry relative="1" as="geometry">
            <mxPoint x="320" y="630" as="targetPoint" />
            <Array as="points">
              <mxPoint x="320" y="780" />
            </Array>
          </mxGeometry>
        </mxCell>
        <mxCell id="VTxr0MBzQ0uazpq9PHjl-43" value="Use C&lt;br&gt;MOCKABLE&lt;br&gt;macro" style="rounded=0;whiteSpace=wrap;html=1;" vertex="1" parent="1">
          <mxGeometry x="260" y="460" width="120" height="60" as="geometry" />
        </mxCell>
        <mxCell id="VTxr0MBzQ0uazpq9PHjl-46" value="weak method" style="swimlane;whiteSpace=wrap;html=1;" vertex="1" parent="1">
          <mxGeometry x="230" y="355" width="180" height="270" as="geometry" />
        </mxCell>
        <mxCell id="VTxr0MBzQ0uazpq9PHjl-47" value="Is mocked&amp;nbsp;&lt;div&gt;function from&lt;/div&gt;&lt;div&gt;&amp;nbsp;external library?&lt;/div&gt;" style="rhombus;whiteSpace=wrap;html=1;" vertex="1" parent="1">
          <mxGeometry x="457.5" y="180" width="125" height="120" as="geometry" />
        </mxCell>
        <mxCell id="VTxr0MBzQ0uazpq9PHjl-48" value="By `mocked function` I&amp;nbsp;&lt;div&gt;mean&amp;nbsp;&lt;span style=&quot;background-color: transparent; color: light-dark(rgb(0, 0, 0), rgb(255, 255, 255));&quot;&gt;function that you&lt;/span&gt;&lt;/div&gt;&lt;div&gt;&lt;span style=&quot;background-color: transparent; color: light-dark(rgb(0, 0, 0), rgb(255, 255, 255));&quot;&gt;&amp;nbsp;want to mock&lt;/span&gt;&lt;span style=&quot;background-color: transparent; color: light-dark(rgb(0, 0, 0), rgb(255, 255, 255));&quot;&gt;.&lt;/span&gt;&lt;/div&gt;" style="ellipse;shape=cloud;whiteSpace=wrap;html=1;" vertex="1" parent="1">
          <mxGeometry x="780" y="-130" width="190" height="120" as="geometry" />
        </mxCell>
      </root>
    </mxGraphModel>
  </diagram>
</mxfile>
